<svg xmlns="http://www.w3.org/2000/svg" viewBox="0 0 41 56" class="as-svgicon as-svgicon-personalization as-svgicon-elevated as-svgicon-personalizationelevated" aria-hidden="true" role="img">
    <rect width="41" height="56" fill="none"></rect>
    <path d="M20.5,10.7A17.3,17.3,0,1,1,3.2,28,17.31958,17.31958,0,0,1,20.5,10.7m0-2.2A19.5,19.5,0,1,0,40,28,19.5,19.5,0,0,0,20.5,8.5Z"></path>
    <path d="M7.042,31.44385a.82226.82226,0,0,1,1.04883-.86133,40.92776,40.92776,0,0,0,12.38867,1.91016,40.915,40.915,0,0,0,12.38672-1.91016.83014.83014,0,0,1,1.05078.86133,13.29274,13.29274,0,0,1-13.4375,11.71484A13.30611,13.30611,0,0,1,7.042,31.44385Zm24.22852,4.11523a11.177,11.177,0,0,0,1.17578-3.42285,42.82681,42.82681,0,0,1-11.9668,1.7002,42.8509,42.8509,0,0,1-11.96875-1.7002,11.25521,11.25521,0,0,0,1.17578,3.42285,35.94744,35.94744,0,0,0,21.584,0Zm-19.001-11.94726a2.62077,2.62077,0,0,1,2.37207-2.793,2.62226,2.62226,0,0,1,2.39453,2.793,2.64213,2.64213,0,0,1-2.39453,2.81347A2.64088,2.64088,0,0,1,12.26953,23.61182Zm11.65332,0a2.62314,2.62314,0,0,1,2.41406-2.793,2.62082,2.62082,0,0,1,2.373,2.793,2.64092,2.64092,0,0,1-2.373,2.81347A2.64279,2.64279,0,0,1,23.92285,23.61182Z"></path>
</svg>