<svg xmlns="http://www.w3.org/2000/svg" class="as-svgicon as-svgicon-returns as-svgicon-elevated as-svgicon-returnselevated" aria-hidden="true" role="img" viewBox="0 0 61 75" width="61">
    <g>
        <polygon points="60.958 75 0 75 0 0 61 0 60.958 75" fill="none"></polygon>
        <g>
            <path d="M58.079,22.3l-20-10.622a5.49,5.49,0,0,0-5.159,0l-20,10.622A5.488,5.488,0,0,0,10,27.159v6.833h3V27.159c0-.009,0-.017,0-.026L34.1,38.6,34.009,60.5,14.327,50.049A2.5,2.5,0,0,1,13,47.841V42.992H10v4.849A5.488,5.488,0,0,0,12.921,52.7l20,10.622a5.492,5.492,0,0,0,5.159,0l20-10.622A5.488,5.488,0,0,0,61,47.841V27.159A5.488,5.488,0,0,0,58.079,22.3ZM34.328,14.33a2.5,2.5,0,0,1,2.345,0L56.312,24.76,47.7,29.42,27.2,18.113ZM14.8,24.7l9.235-4.9L44.568,31.117l-8.991,4.867ZM58,47.841a2.5,2.5,0,0,1-1.327,2.208L37,60.492V38.571L58,27.257Z"></path>
            <path d="M20.629,37H4.721l2.42-2.874a1.5,1.5,0,1,0-2.293-1.935l-4.5,5.333A1.488,1.488,0,0,0,0,38.366c0,.045,0,.089,0,.134s0,.089,0,.134a1.488,1.488,0,0,0,.345.842l4.5,5.333a1.5,1.5,0,1,0,2.293-1.935l-2.43-2.879H20.629a1.5,1.5,0,1,0,0-2.994Z"></path>
        </g>
    </g>
</svg>